<?xml version="1.0" encoding="UTF-8"?>
<svg width="80px" height="12px" viewBox="0 0 80 12" version="1.1" xmlns="http://www.w3.org/2000/svg" xmlns:xlink="http://www.w3.org/1999/xlink">
    <!-- Generator: Sketch 46 (44423) - http://www.bohemiancoding.com/sketch -->
    <title>COLIBRI</title>
    <desc>Created with Sketch.</desc>
    <defs></defs>
    <g id="Symbols" stroke="none" stroke-width="1" fill="none" fill-rule="evenodd">
        <g id="Nav-Bar-(Ghost)" transform="translate(-135.000000, -34.000000)" fill="#FFFFFF">
            <g id="Nav-Bar">
                <path d="M143.696725,41.4657603 C143.587446,42.6231327 143.160267,43.5259194 142.415178,44.1741473 C141.670088,44.8223753 140.679134,45.1464844 139.442285,45.1464844 C138.577981,45.1464844 137.816759,44.9415878 137.158597,44.5317885 C136.500435,44.1219893 135.992539,43.5395863 135.634896,42.7845622 C135.277253,42.0295381 135.090984,41.1528292 135.076082,40.1544092 L135.076082,39.1410924 C135.076082,38.117836 135.257384,37.2162912 135.619995,36.4364307 C135.982605,35.6565703 136.502918,35.0555404 137.18095,34.633323 C137.858981,34.2111055 138.642555,34 139.531695,34 C140.728806,34 141.692441,34.3253509 142.422629,34.9760625 C143.152816,35.626774 143.577511,36.5457041 143.696725,37.7328801 L141.819109,37.7328801 C141.729698,36.9530197 141.502449,36.3904855 141.137355,36.0452607 C140.772262,35.7000358 140.237047,35.527426 139.531695,35.527426 C138.712097,35.527426 138.082506,35.8266992 137.642903,36.4252545 C137.2033,37.0238098 136.978535,37.9017605 136.9686,39.0591329 L136.9686,40.0202937 C136.9686,41.192568 137.178464,42.0866621 137.598198,42.7026028 C138.017931,43.3185435 138.632621,43.6265092 139.442285,43.6265092 C140.182407,43.6265092 140.738733,43.4601084 141.111277,43.1273017 C141.483822,42.794495 141.719764,42.2406534 141.819109,41.4657603 L143.696725,41.4657603 Z M158.107679,39.8563748 C158.107679,40.9193693 157.923893,41.8519591 157.556316,42.6541722 C157.188738,43.4563853 156.663458,44.0723168 155.980459,44.5019851 C155.29746,44.9316534 154.511403,45.1464844 153.622262,45.1464844 C152.743057,45.1464844 151.959483,44.9316534 151.271517,44.5019851 C150.58355,44.0723168 150.052061,43.4601107 149.677033,42.6653485 C149.302004,41.8705863 149.112009,40.9541398 149.107042,39.9159817 L149.107042,39.3050113 C149.107042,38.2469841 149.294554,37.3131525 149.669582,36.5034885 C150.04461,35.6938245 150.573616,35.0741676 151.256615,34.6444993 C151.939614,34.2148309 152.723188,34 153.607361,34 C154.491534,34 155.275108,34.2123473 155.958107,34.6370484 C156.641105,35.0617495 157.168869,35.6727138 157.541414,36.4699596 C157.913959,37.2672055 158.102712,38.1948281 158.107679,39.2528553 L158.107679,39.8563748 Z M156.222612,39.2901096 C156.222612,38.0880317 155.995363,37.1666181 155.540858,36.525841 C155.086354,35.885064 154.441861,35.5646803 153.607361,35.5646803 C152.792729,35.5646803 152.155687,35.8838222 151.696215,36.5221156 C151.236744,37.160409 151.002044,38.0631957 150.992109,39.2305027 L150.992109,39.8563748 C150.992109,41.0485181 151.224325,41.9699318 151.688765,42.6206433 C152.153204,43.2713549 152.797697,43.5967058 153.622262,43.5967058 C154.456763,43.5967058 155.098772,43.2788057 155.548309,42.6429959 C155.997847,42.0071861 156.222612,41.0783217 156.222612,39.8563748 L156.222612,39.2901096 Z M165.939525,43.4923938 L170.864543,43.4923938 L170.864543,44.9974672 L164.054458,44.9974672 L164.054458,34.1490172 L165.939525,34.1490172 L165.939525,43.4923938 Z M178.368551,44.9974672 L176.490934,44.9974672 L176.490934,34.1490172 L178.368551,34.1490172 L178.368551,44.9974672 Z M184.75493,44.9974672 L184.75493,34.1490172 L188.472908,34.1490172 C189.699822,34.1490172 190.633654,34.394893 191.274431,34.8866522 C191.915208,35.3784113 192.235592,36.1110717 192.235592,37.0846554 C192.235592,37.5813818 192.101478,38.0284289 191.833245,38.42581 C191.565013,38.8231911 191.172605,39.1311568 190.65601,39.3497164 C191.242147,39.5086689 191.695403,39.807942 192.015791,40.2475449 C192.33618,40.6871477 192.496372,41.2149116 192.496372,41.8308523 C192.496372,42.8491414 192.169779,43.6314737 191.516584,44.1778728 C190.863389,44.7242718 189.928315,44.9974672 188.711336,44.9974672 L184.75493,44.9974672 Z M186.639997,40.1022531 L186.639997,43.4923938 L188.733688,43.4923938 C189.324793,43.4923938 189.786741,43.3458617 190.119548,43.0527931 C190.452355,42.7597246 190.618755,42.352415 190.618755,41.8308523 C190.618755,40.7032834 190.042561,40.1270895 188.890156,40.1022531 L186.639997,40.1022531 Z M186.639997,38.7163935 L188.48781,38.7163935 C189.073947,38.7163935 189.53217,38.5835211 189.862493,38.3177725 C190.192816,38.0520239 190.357975,37.6757593 190.357975,37.1889675 C190.357975,36.652503 190.205234,36.2650622 189.899748,36.0266335 C189.594261,35.7882049 189.118652,35.6689923 188.472908,35.6689923 L186.639997,35.6689923 L186.639997,38.7163935 Z M202.43681,40.8175356 L200.335668,40.8175356 L200.335668,44.9974672 L198.450601,44.9974672 L198.450601,34.1490172 L202.265441,34.1490172 C203.517191,34.1490172 204.48331,34.4296634 205.163825,34.9909642 C205.84434,35.552265 206.184592,36.3644005 206.184592,37.4273949 C206.184592,38.1526155 206.009499,38.7598544 205.659307,39.2491298 C205.309115,39.7384053 204.821088,40.1146699 204.195213,40.3779349 L206.631644,44.900606 L206.631644,44.9974672 L204.612461,44.9974672 L202.43681,40.8175356 Z M200.335668,39.3050113 L202.272892,39.3050113 C202.908701,39.3050113 203.40542,39.1448194 203.763063,38.8244309 C204.120706,38.5040424 204.299525,38.0656879 204.299525,37.5093544 C204.299525,36.9281845 204.134366,36.4786539 203.804043,36.160749 C203.47372,35.8428441 202.980726,35.6789268 202.325048,35.6689923 L200.335668,35.6689923 L200.335668,39.3050113 Z M214.03134,44.9974672 L212.153723,44.9974672 L212.153723,34.1490172 L214.03134,34.1490172 L214.03134,44.9974672 Z" id="COLIBRI"></path>
            </g>
        </g>
    </g>
</svg>