<?xml version="1.0" encoding="UTF-8"?>
<svg width="48px" height="48px" viewBox="0 0 48 48" version="1.1" xmlns="http://www.w3.org/2000/svg" xmlns:xlink="http://www.w3.org/1999/xlink">
    <!-- Generator: Sketch 46.2 (44496) - http://www.bohemiancoding.com/sketch -->
    <title>plus-circle-icon</title>
    <desc>Created with Sketch.</desc>
    <defs></defs>
    <g id="Symbols" stroke="none" stroke-width="1" fill="none" fill-rule="evenodd">
        <g id="Instagram" transform="translate(-711.000000, -196.000000)">
            <g id="Images">
                <g transform="translate(635.000000, 120.000000)">
                    <g id="Hover">
                        <g id="plus-circle-icon" transform="translate(76.000000, 76.000000)">
                            <circle id="Base" fill="#FAFAFA" cx="24" cy="24" r="24"></circle>
                            <path d="M25,23 L25,17 C25,16.4477153 24.5522847,16 24,16 L24,16 L24,16 C23.4477153,16 23,16.4477153 23,17 L23,17 L23,23 L17,23 L17,23 C16.4477153,23 16,23.4477153 16,24 C16,24.5522847 16.4477153,25 17,25 L23,25 L23,31 C23,31.5522847 23.4477153,32 24,32 C24.5522847,32 25,31.5522847 25,31 L25,31 L25,25 L31,25 C31.5522847,25 32,24.5522847 32,24 C32,23.4477153 31.5522847,23 31,23 L25,23 Z" id="Plus" fill="#222222"></path>
                        </g>
                    </g>
                </g>
            </g>
        </g>
    </g>
</svg>