<?xml version="1.0" encoding="UTF-8"?>
<svg width="16px" height="16px" viewBox="0 0 16 16" version="1.1" xmlns="http://www.w3.org/2000/svg" xmlns:xlink="http://www.w3.org/1999/xlink">
    <!-- Generator: Sketch 46 (44423) - http://www.bohemiancoding.com/sketch -->
    <title>Close Icon</title>
    <desc>Created with Sketch.</desc>
    <defs></defs>
    <g id="Assets" stroke="none" stroke-width="1" fill="none" fill-rule="evenodd">
        <g id="Assets-(Light-BG)" transform="translate(-84.000000, -192.000000)" fill-rule="nonzero" fill="#222222">
            <path d="M90.5857864,200 L84.2928932,193.707107 C83.9023689,193.316582 83.9023689,192.683418 84.2928932,192.292893 C84.6834175,191.902369 85.3165825,191.902369 85.7071068,192.292893 L92,198.585786 L98.2928932,192.292893 C98.6834175,191.902369 99.3165825,191.902369 99.7071068,192.292893 C100.097631,192.683418 100.097631,193.316582 99.7071068,193.707107 L93.4142136,200 L99.7071068,206.292893 C100.097631,206.683418 100.097631,207.316582 99.7071068,207.707107 C99.3165825,208.097631 98.6834175,208.097631 98.2928932,207.707107 L92,201.414214 L85.7071068,207.707107 C85.3165825,208.097631 84.6834175,208.097631 84.2928932,207.707107 C83.9023689,207.316582 83.9023689,206.683418 84.2928932,206.292893 L90.5857864,200 L90.5857864,200 Z" id="Close-Icon"></path>
        </g>
    </g>
</svg>